<svg width="745" height="104" viewBox="0 0 745 104" fill="none" xmlns="http://www.w3.org/2000/svg">
<g clip-path="url(#clip0_1331_3336)">
<rect width="745" height="104" fill="white"/>
<path d="M744.897 29H546V75.73H744.897V29Z" fill="#D7182A"/>
<path d="M659.327 51.4546H680.604V63.7481H694.055V51.4546H715.331V40.9822H659.327V51.4546ZM628.635 63.7481H669.965V53.2758H641.963V40.9822H628.635V63.7481V63.7481ZM559.18 63.7481H572.508V57.829H595.864V63.7481H609.192V40.9822H595.864V46.9014H572.508V40.9822H559.18V63.7481ZM731.717 40.9822H718.388V63.7481H731.717V40.9822ZM625.578 63.7481H612.249V40.9822H625.578V63.7481Z" fill="white"/>
<path d="M477.969 62.2554H483.578C484.567 62.2554 485.227 62.2554 485.667 62.1304C486.327 62.0054 486.987 61.7554 487.427 61.5054C487.867 61.1304 488.306 60.7554 488.526 60.1304C488.856 59.5054 488.966 58.7554 488.966 58.0054C488.966 57.1304 488.746 56.2554 488.306 55.6304C487.867 54.8804 487.317 54.5054 486.547 54.1304C485.777 53.8804 484.677 53.7554 483.248 53.7554H477.969V62.2554ZM477.969 50.7554H482.918C484.238 50.7554 485.227 50.6304 485.777 50.5054C486.547 50.2554 487.097 49.8804 487.537 49.2554C487.977 48.6304 488.087 48.0054 488.087 47.1304C488.087 46.2554 487.867 45.6304 487.537 45.0054C487.207 44.3804 486.657 43.8804 485.997 43.7554C485.337 43.5054 484.128 43.3804 482.588 43.3804H478.079V50.7554H477.969ZM475 65.2554V40.2554H483.468C485.227 40.2554 486.547 40.5054 487.647 41.0054C488.746 41.5054 489.516 42.2554 490.066 43.3804C490.616 44.3804 490.946 45.5054 490.946 46.6304C490.946 47.7554 490.726 48.7554 490.176 49.6304C489.626 50.5054 488.856 51.3804 487.757 51.8804C489.076 52.3804 490.176 53.1304 490.946 54.1304C491.716 55.2554 492.045 56.5054 492.045 57.8804C492.045 59.0054 491.826 60.1304 491.386 61.1304C490.946 62.1304 490.396 62.8804 489.736 63.5054C489.076 64.0054 488.196 64.5054 487.207 64.7554C486.217 65.0054 485.007 65.1304 483.578 65.1304H475V65.2554Z" fill="#1A1D20"/>
<path d="M504.276 65.2554V54.6304L493.75 40.2554H498.092L503.487 47.7554C504.539 49.1304 505.461 50.6304 506.25 52.0054C507.039 50.7554 508.092 49.2554 509.276 47.6304L514.539 40.2554H518.75L507.961 54.6304V65.2554H504.276Z" fill="#1A1D20"/>
<path d="M51.7848 102.884C79.6271 102.884 102.198 80.313 102.198 52.4707C102.198 24.6284 79.6271 2.05774 51.7848 2.05774C23.9425 2.05774 1.37183 24.6284 1.37183 52.4707C1.37183 80.313 23.9425 102.884 51.7848 102.884Z" fill="url(#paint0_linear_1331_3336)"/>
<path d="M52.1277 0C41.8174 1.3134e-07 31.7388 3.05744 23.1662 8.78567C14.5937 14.5139 7.91238 22.6556 3.96721 32.1812C0.0220347 41.7068 -1.00978 52.1883 1.00225 62.3003C3.01428 72.4123 7.97979 81.7006 15.2708 88.9904C22.5618 96.2803 31.8509 101.244 41.9632 103.255C52.0755 105.265 62.5569 104.232 72.0818 100.285C81.6068 96.3382 89.7474 89.6556 95.4743 81.0822C101.201 72.5087 104.257 62.4296 104.255 52.1193C104.24 38.2997 98.7427 25.0507 88.97 15.2795C79.1972 5.50832 65.9473 0.0132138 52.1277 0V0ZM76.3735 41.7021H38.8732C38.6883 41.701 38.5104 41.6315 38.3737 41.5071C38.237 41.3827 38.1512 41.2121 38.1327 41.0282C37.5419 34.3718 40.4291 24.1293 47.1271 21.1756C48.433 20.9553 49.755 20.844 51.0793 20.8427H53.4423C59.1083 20.8489 64.5901 22.8557 68.9209 26.5091C73.2517 30.1625 76.1533 35.2279 77.114 40.8118C77.1365 40.9208 77.1342 41.0334 77.1072 41.1414C77.0802 41.2493 77.0293 41.3498 76.9581 41.4353C76.887 41.5208 76.7975 41.5893 76.6963 41.6354C76.595 41.6816 76.4847 41.7044 76.3735 41.7021V41.7021ZM77.4551 47.0439V48.6414C77.4551 48.8047 77.3903 48.9613 77.2748 49.0768C77.1593 49.1922 77.0027 49.2571 76.8394 49.2571H47.6596C47.5305 49.2553 47.4052 49.2135 47.3009 49.1375C47.1966 49.0615 47.1184 48.955 47.0772 48.8328C46.9108 48.3252 46.7527 47.7844 46.5779 47.2269C46.5465 47.1326 46.5378 47.0322 46.5525 46.9339C46.5671 46.8356 46.6048 46.7421 46.6623 46.6611C46.7198 46.58 46.7957 46.5137 46.8837 46.4674C46.9716 46.4212 47.0693 46.3963 47.1687 46.3949H76.8394C76.9232 46.3947 77.006 46.4117 77.083 46.4447C77.16 46.4777 77.2294 46.5261 77.287 46.5868C77.3446 46.6476 77.3893 46.7194 77.4182 46.798C77.4471 46.8766 77.4597 46.9602 77.4551 47.0439V47.0439ZM60.8142 56.3128C61.1739 56.3128 61.5189 56.4557 61.7732 56.7101C62.0276 56.9644 62.1705 57.3094 62.1705 57.6691V57.8854C62.1376 58.4362 61.9683 58.9702 61.6778 59.4393C61.3874 59.9085 60.9848 60.298 60.5064 60.5729C60.3808 60.6676 60.287 60.7983 60.2376 60.9476C60.1882 61.0969 60.1854 61.2578 60.2297 61.4087C60.274 61.5596 60.3632 61.6934 60.4854 61.7924C60.6077 61.8913 60.7572 61.9506 60.9141 61.9624C62.0221 62.0315 63.125 61.7616 64.0758 61.1886C65.4874 60.3309 66.5061 58.9537 66.9131 57.3529C66.9857 57.0566 67.1554 56.7932 67.3952 56.6047C67.635 56.4161 67.931 56.3134 68.2361 56.3128H71.0234C71.2202 56.3085 71.4156 56.347 71.5961 56.4257C71.7765 56.5044 71.9376 56.6215 72.0683 56.7687C72.1989 56.916 72.2959 57.0899 72.3525 57.2784C72.4092 57.467 72.4241 57.6656 72.3963 57.8604L70.9319 68.1529V68.261C70.5658 70.6823 70.3079 73.1867 71.4478 74.5929L81.0329 87.6144C81.14 87.759 81.2174 87.9233 81.2608 88.0979C81.3041 88.2725 81.3125 88.454 81.2854 88.6318C81.2583 88.8097 81.1964 88.9804 81.1031 89.1343C81.0098 89.2881 80.887 89.4219 80.7417 89.5281C77.4097 91.7587 73.9134 93.7336 70.2829 95.4356C70.0439 95.5521 69.7757 95.5954 69.5122 95.5598C69.2486 95.5243 69.0015 95.4116 68.8019 95.2359L58.4512 86.1833C57.4814 85.3358 56.8227 84.1883 56.58 82.9234C56.3373 81.6585 56.5244 80.3487 57.1116 79.2024L57.2448 78.9195C58.5043 78.1769 59.5812 77.1613 60.3962 75.9474C61.2112 74.7335 61.7436 73.3523 61.9541 71.9054L62.1538 70.5159C62.2456 69.9015 62.215 69.2751 62.0637 68.6726C61.9123 68.0701 61.6433 67.5035 61.2721 67.0055C60.9009 66.5074 60.4348 66.0877 59.9007 65.7706C59.3666 65.4534 58.775 65.245 58.16 65.1575L57.278 71.2231C57.1439 72.1577 56.7522 73.0365 56.1467 73.761C55.5412 74.4856 54.746 75.0271 53.85 75.3251L49.3154 76.8228C48.5344 76.8642 47.7662 76.6124 47.1613 76.1167C46.5564 75.6211 46.1584 74.9174 46.0454 74.1436L44.9887 66.6552C44.9242 66.0751 44.7436 65.5139 44.4577 65.005C44.1718 64.4961 43.7865 64.05 43.3246 63.6931C43.3246 63.6931 40.9034 61.4965 39.2393 60.29C38.7705 59.9469 38.3886 59.4988 38.1242 58.9815C37.8597 58.4642 37.7202 57.8922 37.7166 57.3113V56.3128H60.8142ZM83.8619 84.7522L74.6428 72.2715C74.543 71.9387 74.5097 71.09 74.8342 68.8767L76.7895 55.3144C76.8332 54.9718 77.0052 54.6584 77.2707 54.4376C77.5363 54.2168 77.8758 54.1049 78.2206 54.1246H79.5269C79.7862 54.1257 80.0431 54.0754 80.2829 53.9767C80.5226 53.878 80.7404 53.7328 80.9238 53.5494C81.1071 53.3661 81.2523 53.1483 81.351 52.9085C81.4497 52.6688 81.5 52.4119 81.4989 52.1526V44.8556C81.5 41.1728 80.7747 37.5259 79.3646 34.1238C77.9545 30.7217 75.8873 27.631 73.2812 25.0288C70.6752 22.4266 67.5815 20.364 64.1772 18.9589C60.773 17.5539 57.1251 16.834 53.4423 16.8406H51.0793C43.9979 16.8493 37.1818 19.5364 31.9994 24.3623C26.817 29.1882 23.6518 35.7958 23.1392 42.8587C23.1203 43.1532 23.0358 43.4399 22.8918 43.6975C22.7478 43.9552 22.5481 44.1775 22.3072 44.348L13.5457 50.5218C13.445 50.5878 13.3665 50.6827 13.3205 50.794C13.2744 50.9053 13.2631 51.028 13.2878 51.1458L13.4708 52.0278C13.6705 53.0346 14.6607 54.2161 16.799 54.2161H23.5469C23.9088 54.2161 24.2559 54.3599 24.5118 54.6158C24.7677 54.8717 24.9115 55.2187 24.9115 55.5806V66.2475C24.9148 66.8018 25.1291 67.334 25.5109 67.7358C25.8927 68.1377 26.4132 68.3791 26.9666 68.4108L28.6806 68.494C29.2238 68.5199 29.7437 68.7224 30.1612 69.0708C30.5788 69.4193 30.8711 69.8945 30.9937 70.4243L33.2902 80.1593V80.2924C33.4608 80.9927 33.7847 81.6463 34.2387 82.2061C34.9919 83.1536 36.0135 83.8519 37.1699 84.2097C38.3262 84.5674 39.5636 84.568 40.7203 84.2113L43.283 83.3793C43.4509 83.3343 43.6286 83.343 43.7913 83.4042C43.9539 83.4654 44.0934 83.576 44.19 83.7204L45.4713 85.8172C46.5693 87.5246 48.1386 88.8772 49.9893 89.7112C50.3889 89.9224 50.7469 90.2043 51.046 90.5432C52.0611 91.6748 53.3425 94.5786 54.3742 97.316C54.4478 97.5211 54.4719 97.7406 54.4444 97.9567C54.417 98.1728 54.3388 98.3794 54.2163 98.5595C54.0938 98.7396 53.9304 98.8882 53.7395 98.9931C53.5486 99.098 53.3355 99.1563 53.1178 99.1632H52.1277C41.247 99.1705 30.6986 95.4152 22.2703 88.5339C13.842 81.6526 8.05241 72.0687 5.88283 61.4065C3.71325 50.7444 5.29718 39.66 10.3661 30.0323C15.4351 20.4045 23.6772 12.8257 33.6955 8.58035C43.7137 4.33503 54.8918 3.68443 65.3349 6.73883C75.778 9.79322 84.8438 16.3647 90.9954 25.3394C97.1471 34.3141 100.006 45.1398 99.0883 55.9817C98.1703 66.8235 93.5317 77.0144 85.9586 84.827C85.8253 84.9705 85.6625 85.0836 85.4816 85.1586C85.3006 85.2336 85.1056 85.2687 84.9098 85.2616C84.714 85.2545 84.5221 85.2053 84.347 85.1174C84.1719 85.0295 84.0178 84.9049 83.8952 84.7522H83.8619Z" fill="#1A1D21"/>
<path d="M132.622 31.9687C132.622 31.5462 132.762 31.4053 133.183 31.4053H160.269C160.69 31.4053 160.83 31.5462 160.83 31.9687V38.5877C160.83 39.0102 160.69 39.151 160.269 39.151H142.165C141.884 39.151 141.744 39.2918 141.744 39.5735V48.4458C141.744 48.7274 141.884 48.8683 142.165 48.8683H157.181C157.602 48.8683 157.743 49.0091 157.743 49.4316V56.0506C157.743 56.4731 157.602 56.6139 157.181 56.6139H142.024C141.744 56.6139 141.603 56.7547 141.603 57.0364V72.9502C141.603 73.3727 141.463 73.5135 141.042 73.5135H133.183C132.762 73.5135 132.622 73.3727 132.622 72.9502V31.9687Z" fill="#1A1D21"/>
<path d="M169.249 31.9686C169.249 31.5461 169.389 31.4053 169.81 31.4053H177.669C178.09 31.4053 178.231 31.5461 178.231 31.9686V72.9501C178.231 73.3726 178.09 73.5134 177.669 73.5134H169.81C169.389 73.5134 169.249 73.3726 169.249 72.9501V31.9686Z" fill="#1A1D21"/>
<path d="M188.476 31.9686C188.476 31.5461 188.617 31.4053 189.038 31.4053H216.123C216.544 31.4053 216.685 31.5461 216.685 31.9686V38.5876C216.685 39.0101 216.544 39.1509 216.123 39.1509H197.879C197.599 39.1509 197.458 39.2918 197.458 39.5734V48.0232C197.458 48.3049 197.599 48.4457 197.879 48.4457H213.036C213.457 48.4457 213.597 48.5865 213.597 49.009V55.628C213.597 56.0505 213.457 56.1914 213.036 56.1914H197.879C197.599 56.1914 197.458 56.3322 197.458 56.6138V65.3453C197.458 65.627 197.599 65.7678 197.879 65.7678H216.123C216.544 65.7678 216.685 65.9086 216.685 66.3311V72.9501C216.685 73.3726 216.544 73.5134 216.123 73.5134H189.038C188.617 73.5134 188.476 73.3726 188.476 72.9501V31.9686V31.9686Z" fill="#1A1D21"/>
<path d="M225.525 31.9686C225.525 31.5461 225.666 31.4053 226.087 31.4053H233.946C234.367 31.4053 234.507 31.5461 234.507 31.9686V65.2045C234.507 65.4861 234.647 65.627 234.928 65.627H253.453C253.874 65.627 254.014 65.7678 254.014 66.1903V73.091C254.014 73.5134 253.874 73.6543 253.453 73.6543H225.946C225.525 73.6543 225.385 73.5134 225.385 73.091V31.9686H225.525Z" fill="#1A1D21"/>
<path d="M261.733 31.9686C261.733 31.5461 261.873 31.4053 262.294 31.4053H278.012C281.661 31.4053 284.889 32.2503 287.275 33.7994C289.801 35.3485 291.485 37.7426 292.608 40.9817C292.748 41.545 292.888 42.1084 293.029 42.8125C293.169 43.5167 293.309 44.2208 293.45 45.0658C293.59 45.9108 293.59 47.0374 293.73 48.164C293.73 49.4315 293.73 50.8398 293.73 52.5298C293.73 54.2197 293.73 55.7689 293.73 56.8955C293.73 58.163 293.59 59.1488 293.45 59.9938C293.309 60.8387 293.169 61.6837 293.029 62.247C292.888 62.9512 292.748 63.5145 292.608 64.0778C291.625 67.3169 289.801 69.711 287.275 71.2602C284.749 72.8093 281.661 73.6543 278.012 73.6543H262.434C262.013 73.6543 261.873 73.5134 261.873 73.091V31.9686H261.733ZM270.855 65.0636C270.855 65.3453 270.995 65.4861 271.276 65.4861H276.047C278.153 65.4861 279.837 65.2045 281.1 64.5003C282.363 63.7962 283.345 62.5287 283.766 60.8387C283.906 60.5571 284.047 60.1346 284.047 59.8529C284.187 59.4304 284.187 59.008 284.328 58.3038C284.328 57.7405 284.468 56.8955 284.468 55.9097C284.468 54.9239 284.468 53.7972 284.468 52.3889C284.468 50.9806 284.468 49.854 284.468 49.009C284.468 48.0232 284.468 47.3191 284.328 46.7557C284.328 46.1924 284.187 45.6291 284.047 45.2066C283.906 44.7841 283.906 44.5025 283.766 44.08C283.205 42.39 282.363 41.1225 281.1 40.4184C279.837 39.7142 278.153 39.4326 276.047 39.4326H271.276C270.995 39.4326 270.855 39.5734 270.855 39.8551V65.0636Z" fill="#1A1D21"/>
<path d="M333.027 73.5134C332.606 73.5134 332.326 73.3726 332.185 72.9501L324.888 46.6149H324.747L317.309 72.9501C317.169 73.3726 316.888 73.5134 316.467 73.5134H310.292C309.871 73.5134 309.731 73.3726 309.591 72.9501L298.644 31.9686C298.504 31.5461 298.785 31.4053 299.206 31.4053H307.205C307.626 31.4053 307.907 31.5461 307.907 31.9686L313.941 58.5855H314.082L321.239 31.9686C321.379 31.5461 321.66 31.4053 322.081 31.4053H327.414C327.835 31.4053 327.975 31.5461 328.116 31.9686L335.554 58.5855H335.694L341.588 31.9686C341.588 31.5461 341.869 31.4053 342.29 31.4053H350.289C350.71 31.4053 350.851 31.5461 350.851 31.9686L340.044 72.9501C339.904 73.3726 339.623 73.5134 339.202 73.5134H333.027V73.5134Z" fill="#1A1D21"/>
<path d="M357.727 31.9686C357.727 31.5461 357.867 31.4053 358.288 31.4053H366.147C366.568 31.4053 366.709 31.5461 366.709 31.9686V72.9501C366.709 73.3726 366.568 73.5134 366.147 73.5134H358.288C357.867 73.5134 357.727 73.3726 357.727 72.9501V31.9686V31.9686Z" fill="#1A1D21"/>
<path d="M400.389 73.5134C399.968 73.5134 399.687 73.3726 399.406 72.9501L392.109 57.4588H386.495C386.214 57.4588 386.074 57.5997 386.074 57.8813V72.9501C386.074 73.3726 385.934 73.5134 385.513 73.5134H377.654C377.233 73.5134 377.092 73.3726 377.092 72.9501V31.9686C377.092 31.5461 377.233 31.4053 377.654 31.4053H394.494C396.6 31.4053 398.564 31.6869 400.389 32.3911C402.213 33.0952 403.617 33.9402 404.88 35.0669C406.143 36.1935 407.125 37.6018 407.827 39.2918C408.528 40.8409 408.809 42.6717 408.809 44.6433C408.809 47.3191 408.107 49.7132 406.844 51.8256C405.581 53.7972 403.617 55.3464 401.371 56.473L409.651 73.091C409.791 73.2318 409.791 73.5134 409.651 73.6543C409.511 73.7951 409.37 73.9359 409.23 73.9359H400.389V73.5134ZM393.933 49.7132C395.617 49.7132 397.021 49.2907 398.143 48.3049C399.126 47.3191 399.687 46.0516 399.687 44.5025C399.687 42.9533 399.126 41.6859 398.143 40.7001C397.161 39.7142 395.757 39.2918 393.933 39.2918H386.495C386.214 39.2918 386.074 39.4326 386.074 39.7142V49.2907C386.074 49.5723 386.214 49.7132 386.495 49.7132H393.933Z" fill="#1A1D21"/>
<path d="M417.792 31.9686C417.792 31.5461 417.932 31.4053 418.353 31.4053H445.439C445.86 31.4053 446 31.5461 446 31.9686V38.5876C446 39.0101 445.86 39.1509 445.439 39.1509H427.335C427.054 39.1509 426.914 39.2918 426.914 39.5734V48.0232C426.914 48.3049 427.054 48.4457 427.335 48.4457H442.492C442.913 48.4457 443.053 48.5865 443.053 49.009V55.628C443.053 56.0505 442.913 56.1914 442.492 56.1914H427.335C427.054 56.1914 426.914 56.3322 426.914 56.6138V65.3453C426.914 65.627 427.054 65.7678 427.335 65.7678H445.439C445.86 65.7678 446 65.9086 446 66.3311V72.9501C446 73.3726 445.86 73.5134 445.439 73.5134H418.353C417.932 73.5134 417.792 73.3726 417.792 72.9501V31.9686Z" fill="#1A1D21"/>
</g>
<defs>
<linearGradient id="paint0_linear_1331_3336" x1="51.8249" y1="103.296" x2="51.8249" y2="2.59987" gradientUnits="userSpaceOnUse">
<stop stop-color="#F9AE31"/>
<stop offset="1" stop-color="#FDCE35"/>
</linearGradient>
<clipPath id="clip0_1331_3336">
<rect width="745" height="104" fill="white"/>
</clipPath>
</defs>
</svg>
